<svg xmlns="http://www.w3.org/2000/svg" fill="none" viewBox="0 0 96 96" id="Neovim--Streamline-Svg-Logos" height="24" width="24">
  <desc>
    Neovim Streamline Icon: https://streamlinehq.com
  </desc>
  <path fill="url(#a)" d="m1 40.3064 5.74916-5.8044 0 26.9889L1 55.7535V40.3064Z"></path>
  <path fill="url(#b)" d="m23.214 40.3613-5.8279-5.8562.1182 26.9858 5.7491-5.7374-.0394-15.3922Z"></path>
  <path fill="url(#c)" d="M6.74519 34.5066 21.6924 57.3155l-4.1827 4.1826L2.55469 38.7397l4.1905-4.2331Z"></path>
  <path fill="#000000" fill-opacity=".13" d="m6.74992 45.0861-.00795.8984-4.61502-6.8133.42733-.4354 4.19564 6.3503Z"></path>
  <path fill="#444444" d="M29.7446 53.9859V42.5936h.5921c.1972 0 .3111.0955.3416.2862l.1025 1.7175c.5163-.6563 1.1177-1.1851 1.8048-1.5858.6868-.4007 1.4517-.6011 2.2943-.6011.6224 0 1.171.0994 1.6454.2977.4744.1985.8672.4848 1.1785.8587.3113.3742.5466.8244.706 1.3511.1594.5266.2391 1.122.2391 1.7861v7.2819h-1.0817V46.704c0-1.0687-.243-1.9064-.7288-2.5132-.486-.6068-1.2297-.9102-2.2317-.9102-.7443 0-1.4347.1928-2.0724.5782-.6376.3856-1.2069.9141-1.708 1.5857v8.5414h-1.0817Z"></path>
  <path fill="#444444" d="M45.4702 42.4104c.6445 0 1.2409.1104 1.7897.3314.5485.2211 1.0243.5429 1.4271.9657.4028.4229.7172.9429.9437 1.56.2263.6171.3395 1.3257.3395 2.1257 0 .1675-.0249.2818-.0748.3429-.0499.061-.1284.0914-.2355.0914h-8.2638v.2171c0 .8533.0996 1.6039.2992 2.2514.1993.6476.4834 1.1904.8517 1.6286.3683.4382.8132.7675 1.335.9885.5216.2211 1.1049.3315 1.7494.3315.5754 0 1.0742-.0629 1.4961-.1886.4219-.1257.7769-.2667 1.0646-.4229.2877-.1561.516-.2971.6848-.4228.1687-.1257.2916-.1886.3682-.1886.0997 0 .1766.0382.2302.1143l.2993.3657c-.1842.2286-.4277.4421-.7309.64-.3031.1982-.6408.3678-1.0127.5086-.3722.141-.7711.2532-1.197.3371-.4258.0837-.8535.1257-1.2832.1257-.7826 0-1.4962-.1353-2.1407-.4057-.6445-.2704-1.1976-.6647-1.6591-1.1828-.4617-.5182-.8185-1.1525-1.0703-1.9029-.2521-.7504-.378-1.6095-.378-2.5771 0-.8151.117-1.5675.3511-2.2571.234-.6896.5715-1.2839 1.0127-1.7828.4411-.499.982-.8894 1.6228-1.1714.6403-.2819 1.3675-.4229 2.1809-.4229Zm.0729.7632c-.5973 0-1.1326.0893-1.6057.2678-.4733.1786-.8823.4352-1.2274.7699-.3452.3348-.6244.7365-.8378 1.2051-.2135.4687-.3547.9931-.4246 1.5733h7.6322c0-.5951-.0855-1.1287-.2561-1.6012-.1709-.4722-.4111-.8721-.7213-1.1995-.3102-.3271-.6826-.5782-1.117-.7532-.4342-.1747-.9149-.2622-1.4423-.2622Z"></path>
  <path fill="#444444" d="M56.2726 42.4104c.8302 0 1.5733.139 2.2291.4171.6556.2782 1.2085.6725 1.6588 1.1829.45.5104.7934 1.1257 1.0302 1.8457.2367.72.355 1.5257.355 2.4171s-.1185 1.6953-.355 2.4114c-.2368.7163-.5802 1.3296-1.0302 1.84-.4503.5104-1.0032.9028-1.6588 1.1771-.6558.2743-1.3989.4114-2.2291.4114-.8305 0-1.5734-.1371-2.2292-.4114-.6558-.2743-1.2106-.6667-1.6646-1.1771-.454-.5104-.7994-1.1239-1.036-1.84-.2367-.7161-.355-1.52-.355-2.4114s.1183-1.6971.355-2.4171c.2368-.72.582-1.3351 1.036-1.8457.454-.5104 1.0088-.9047 1.6646-1.1829.6558-.2779 1.3987-.4171 2.2292-.4171Zm-.0637 10.9395c.6794 0 1.2728-.1168 1.7805-.3507.5074-.2338.9311-.5691 1.2709-1.006.3396-.4369.5934-.9638.7615-1.581.1676-.617.2519-1.3087.2519-2.0753 0-.7589-.0841-1.4488-.2519-2.0696-.1681-.6209-.4219-1.1517-.7615-1.5925-.3396-.4406-.7632-.7798-1.2709-1.0175-.5077-.2376-1.1013-.3565-1.7805-.3565-.6793 0-1.2731.1189-1.7805.3565-.5077.2377-.9314.5769-1.271 1.0175-.3398.4408-.5954.9716-.7671 1.5925-.1718.6208-.2577 1.3107-.2577 2.0696 0 .7664.0859 1.4583.2577 2.0753.1717.6172.4273 1.1441.7671 1.581.3396.4369.7633.7722 1.271 1.006.5074.2339 1.101.3507 1.7805.3507Z"></path>
  <path fill="#444444" d="M68.3595 53.7318H65.809l-4.6454-11.7027h2.3341c.2049 0 .3775.0495.518.1482.1403.099.2373.2243.2904.3764l2.2544 6.2506c.1289.365.2373.7225.3245 1.0722.0872.3499.1651.6997.2334 1.0494.0683-.3497.146-.6995.2334-1.0494.0872-.3497.1993-.7072.3359-1.0722l2.3113-6.2506c.0531-.1521.148-.2774.2847-.3764.1366-.0987.2996-.1482.4896-.1482h2.2202l-4.634 11.7027Z"></path>
  <path fill="#444444" d="M76.5561 42.156h-2.9257v11.7027h2.9257V42.156Z"></path>
  <path fill="#444444" d="M78.4634 53.8592V42.0857h1.733c.3672 0 .608.1721.7227.5164l.1836.8721c.2066-.2295.4228-.44.6484-.6311.2256-.1912.4666-.3558.7229-.4935.2561-.1377.5316-.2467.8262-.327.2945-.0803.6177-.1205.9699-.1205.7418 0 1.3521.2008 1.8304.6024.478.4017.8358.9353 1.0729 1.6008.1836-.3901.4131-.7247.6885-1.004.2754-.2791.5777-.5068.9066-.6828.3289-.1758.6789-.3059 1.05-.3902.3709-.0842.7438-.1262 1.1188-.1262.6502 0 1.2279.0996 1.7328.2984.5049.1989.9295.4895 1.2738.8721.3442.3826.6063.8491.786 1.3999.1797.5508.2699 1.182.2699 1.8934v7.4933h-2.8346v-7.4933c0-.7497-.1646-1.3139-.4932-1.6925-.3291-.3787-.8111-.5681-1.4461-.5681-.2908 0-.5603.0498-.8088.1492-.2488.0996-.4668.2431-.6543.4303-.1873.1875-.3347.4228-.4418.7058-.1072.2829-.1607.6081-.1607.9753v7.4933h-2.8457v-7.4933c0-.7878-.1588-1.3616-.4762-1.7212-.3176-.3594-.7861-.5394-1.4057-.5394-.4058 0-.7861.1015-1.1418.3041-.356.2027-.6867.4801-.9926.832v8.6178h-2.8349Z"></path>
  <path fill="#444444" d="M76.5561 38.2126h-2.9257v2.4169h2.9257v-2.4169Z"></path>
  <defs>
    <linearGradient id="a" x1="288.458" x2="288.458" y1="34.502" y2="2733.4" gradientUnits="userSpaceOnUse">
      <stop stop-color="#16b0ed" stop-opacity=".8"></stop>
      <stop offset="1" stop-color="#0f59b2" stop-opacity=".837"></stop>
    </linearGradient>
    <linearGradient id="b" x1="-270.111" x2="-270.111" y1="34.505" y2="2733.09" gradientUnits="userSpaceOnUse">
      <stop stop-color="#7db643"></stop>
      <stop offset="1" stop-color="#367533"></stop>
    </linearGradient>
    <linearGradient id="c" x1="959.44" x2="959.44" y1="34.507" y2="2733.65" gradientUnits="userSpaceOnUse">
      <stop stop-color="#88c649" stop-opacity=".8"></stop>
      <stop offset="1" stop-color="#439240" stop-opacity=".84"></stop>
    </linearGradient>
  </defs>
</svg>